<svg fill="#000" width="800" height="800" viewBox="144 144 512 512" xmlns="http://www.w3.org/2000/svg"><path d="m228.7 238.78c-13.914.0-25.191 11.277-25.191 25.191s11.277 25.191 25.191 25.191h342.59c13.914.0 25.191-11.277 25.191-25.191s-11.277-25.191-25.191-25.191zm0 136.03c-13.914.0-25.191 11.277-25.191 25.191s11.277 25.191 25.191 25.191h342.59c13.914.0 25.191-11.277 25.191-25.191s-11.277-25.191-25.191-25.191zm0 136.03c-13.914.0-25.191 11.277-25.191 25.191s11.277 25.191 25.191 25.191h342.59c13.914.0 25.191-11.277 25.191-25.191s-11.277-25.191-25.191-25.191z"/></svg>